<?xml version="1.0" standalone="no"?>
<!DOCTYPE svg PUBLIC "-//W3C//DTD SVG 20010904//EN"
 "http://www.w3.org/TR/2001/REC-SVG-20010904/DTD/svg10.dtd">
<svg version="1.0" xmlns="http://www.w3.org/2000/svg"
 width="512.000000pt" height="512.000000pt" viewBox="0 0 512.000000 512.000000"
 preserveAspectRatio="xMidYMid meet">
<metadata>
Created by potrace 1.11, written by Peter Selinger 2001-2013
</metadata>
<g transform="translate(0.000000,512.000000) scale(0.100000,-0.100000)"
fill="#000000" stroke="none">
<path d="M2424 5049 c-154 -19 -310 -111 -414 -244 -23 -29 -43 -42 -78 -51
-55 -14 -494 -132 -894 -240 -156 -42 -348 -93 -427 -114 -188 -50 -274 -93
-367 -185 -116 -115 -178 -249 -190 -410 -7 -83 2 -147 36 -265 11 -36 21 -74
23 -85 2 -11 7 -27 10 -35 3 -8 34 -116 67 -240 34 -124 113 -412 177 -640 64
-228 122 -437 129 -465 7 -27 24 -90 38 -140 22 -81 136 -494 171 -620 8 -27
21 -75 30 -105 9 -30 18 -63 20 -73 2 -10 23 -84 45 -165 36 -128 61 -218 125
-452 22 -80 78 -188 127 -246 113 -134 296 -224 466 -229 89 -3 174 14 462 94
140 39 264 73 275 76 11 2 36 9 55 15 19 6 76 22 125 35 50 13 221 60 380 105
160 44 299 82 310 85 45 10 461 126 475 132 8 4 218 8 465 9 383 1 460 4 515
18 93 24 117 34 190 81 143 92 231 212 276 376 17 60 18 164 19 1759 l0 1695
-28 87 c-65 205 -253 385 -442 424 -11 2 -33 7 -50 11 -37 9 -2051 11 -2121 2z
m2127 -330 c69 -33 124 -88 158 -159 l25 -55 1 -1645 c1 -1665 1 -1704 -34
-1768 -24 -45 -85 -104 -135 -130 l-51 -27 -1050 0 -1050 0 -44 24 c-67 35
-126 101 -151 167 l-22 59 0 1635 c0 899 2 1651 5 1671 20 120 118 222 236
247 20 5 491 8 1046 8 l1010 -1 56 -26z m-2674 -704 c0 -237 -4 -395 -9 -395
-5 0 -44 14 -85 30 -63 26 -77 28 -87 16 -234 -289 -439 -622 -538 -871 -45
-114 -76 -202 -82 -238 -3 -15 -10 -55 -17 -90 -42 -227 29 -443 193 -591 34
-30 84 -67 112 -82 28 -15 54 -32 58 -38 4 -6 8 -8 8 -4 0 4 19 0 43 -8 119
-42 283 -48 374 -13 14 5 28 9 33 9 4 0 9 -134 9 -298 1 -221 5 -312 15 -352
8 -30 12 -58 10 -62 -3 -5 0 -8 5 -8 6 0 11 -7 11 -15 0 -29 48 -110 93 -157
24 -26 42 -50 39 -53 -3 -3 0 -5 7 -5 7 0 40 -22 73 -49 34 -27 79 -56 102
-64 66 -24 128 -45 165 -54 30 -7 19 -12 -125 -51 -88 -23 -166 -45 -174 -47
-8 -2 -40 -11 -70 -18 -30 -8 -145 -39 -255 -70 -220 -60 -269 -64 -354 -26
-101 44 -160 120 -195 249 -8 30 -27 98 -41 150 -14 52 -32 118 -40 145 -38
140 -67 245 -80 290 -8 28 -30 106 -49 175 -47 167 -106 381 -111 400 -2 8
-45 164 -95 345 -50 182 -93 337 -95 345 -2 8 -14 53 -28 100 -13 47 -39 139
-57 205 -18 66 -54 197 -81 290 -46 166 -68 245 -75 275 -1 8 -17 62 -34 120
-16 58 -32 114 -34 125 -2 11 -12 47 -21 79 -31 105 -7 201 69 279 49 50 101
74 245 112 189 50 336 91 431 118 47 13 204 57 350 97 146 39 285 78 310 85
85 25 77 63 77 -380z m-31 -719 c18 -14 19 -32 20 -605 l1 -591 -25 -16 c-67
-44 -197 -58 -272 -28 -61 24 -127 69 -147 102 -10 15 -20 29 -23 32 -11 10
-31 63 -37 98 -29 160 74 440 297 807 137 226 143 232 186 201z"/>
<path d="M3294 3878 c-99 -123 -182 -225 -185 -228 -3 -3 -81 -99 -174 -215
-93 -115 -175 -217 -182 -225 -151 -186 -286 -357 -290 -367 -3 -8 358 -473
570 -733 7 -8 43 -53 80 -100 38 -47 74 -92 80 -100 7 -8 28 -35 47 -60 19
-24 43 -53 52 -64 10 -10 52 -64 95 -118 l78 -99 25 29 c14 15 41 48 60 72
102 127 143 175 152 172 5 -1 7 2 4 6 -3 5 17 38 46 73 77 96 112 140 123 153
6 6 64 79 130 161 66 83 122 152 125 155 3 3 59 73 125 155 151 189 155 194
183 222 12 13 22 27 22 30 0 4 7 14 16 24 14 16 9 25 -63 115 -43 54 -77 103
-75 108 2 6 1 8 -3 4 -4 -4 -53 50 -108 120 -56 70 -135 170 -176 222 -42 52
-80 100 -86 106 -5 6 -116 145 -245 307 -129 163 -238 296 -241 297 -4 0 -87
-100 -185 -222z m275 -397 c18 -23 139 -173 268 -334 129 -161 237 -297 240
-304 2 -6 -53 -83 -124 -170 -158 -195 -123 -152 -313 -390 l-161 -202 -27 32
c-15 18 -63 77 -107 132 -43 55 -81 102 -85 105 -3 3 -28 34 -55 70 -28 35
-60 76 -72 90 -116 136 -260 326 -255 336 4 6 140 176 302 378 l295 368 30
-34 c16 -19 45 -54 64 -77z"/>
</g>
</svg>
