<?xml version="1.0" encoding="UTF-8"?>
<svg xmlns="http://www.w3.org/2000/svg" width="512" height="512" viewBox="0 0 512 512">
  <g fill="#000000">
    <!-- back card (fanned left) -->
    <rect x="70" y="120" width="210" height="290" rx="28" ry="28"
          transform="rotate(-18 175 265)"/>
    <!-- front card (white face, knocked out so the spade shows) -->
    <g transform="rotate(8 320 260)">
      <rect x="215" y="90" width="210" height="300" rx="30" ry="30"/>
      <rect x="231" y="106" width="178" height="268" rx="20" ry="20" fill="#ffffff"/>
      <!-- spade -->
      <path fill="#000000" d="M320 150
        C300 195 250 215 250 258
        C250 286 272 304 296 300
        C292 322 282 334 268 342
        L372 342
        C358 334 348 322 344 300
        C368 304 390 286 390 258
        C390 215 340 195 320 150 Z"/>
    </g>
  </g>
</svg>
